<?xml version="1.0" encoding="utf-8"?>
<!-- Generator: Adobe Illustrator 21.1.0, SVG Export Plug-In . SVG Version: 6.00 Build 0)  -->
<svg version="1.1" id="Capa_1" xmlns="http://www.w3.org/2000/svg" xmlns:xlink="http://www.w3.org/1999/xlink" x="0px" y="0px"
	 viewBox="0 0 581.2 581.2" style="enable-background:new 0 0 581.2 581.2;" xml:space="preserve">
<style type="text/css">
	.st0{fill:#6F7E95;}
</style>
<g>
	<g>
		<path class="st0" d="M519.9,455.6L408.6,344.2C392,370,370,392,344.2,408.6l111.3,111.3c17.8,17.8,46.6,17.8,64.3,0
			C537.7,502.1,537.7,473.3,519.9,455.6z"/>
		<path class="st0" d="M411.9,230c0-100.5-81.5-182-182-182C129.5,48,48,129.5,48,230s81.5,182,182,182
			C330.4,411.9,411.9,330.4,411.9,230z M230,366.4c-75.3,0-136.5-61.2-136.5-136.5S154.7,93.5,230,93.5
			c75.2,0,136.5,61.2,136.5,136.5S305.2,366.4,230,366.4z"/>
		<path class="st0" d="M123.8,230h30.3c0-41.8,34-75.8,75.8-75.8v-30.3C171.4,123.8,123.8,171.4,123.8,230z"/>
	</g>
</g>
</svg>
